<?xml version="1.0" encoding="UTF-8"?>
<svg version="1.1" xmlns="http://www.w3.org/2000/svg" width="432" height="432">
<path d="M0 0 C1.34670273 0.00081573 1.34670273 0.00081573 2.72061157 0.00164795 C17.47268409 0.04258454 31.65484492 0.98556224 46.0625 4.375 C47.50061035 4.71241211 47.50061035 4.71241211 48.96777344 5.05664062 C85.57769205 13.91328871 119.06174907 31.04768594 146.515625 56.98046875 C148.58515535 58.92620818 150.6811913 60.76182958 152.875 62.5625 C156.70042084 65.80859028 159.83997617 69.54334057 163.0625 73.375 C163.77921875 74.18066406 164.4959375 74.98632812 165.234375 75.81640625 C188.76723671 102.84843531 204.0711541 135.6156496 212.0625 170.375 C212.38009277 171.73262451 212.38009277 171.73262451 212.70410156 173.11767578 C218.60227888 199.5473055 218.97821943 230.88080202 213.0625 257.375 C212.85850586 258.32004395 212.65451172 259.26508789 212.44433594 260.23876953 C203.64640198 300.18804896 185.44460823 335.79876649 157.0625 365.375 C156.47726562 365.9927832 155.89203125 366.61056641 155.2890625 367.24707031 C140.59065897 382.70021552 124.5397227 394.7824897 106.0625 405.375 C105.3828418 405.77170898 104.70318359 406.16841797 104.00292969 406.57714844 C84.47350092 417.89264553 63.07046234 424.7490489 41.0625 429.375 C40.25474121 429.55289062 39.44698242 429.73078125 38.61474609 429.9140625 C11.76328153 435.60623417 -19.2760369 434.31709049 -45.9375 428.375 C-46.86546387 428.17132813 -47.79342773 427.96765625 -48.74951172 427.7578125 C-103.15372625 415.36409444 -152.56711011 380.79213636 -182.33398438 333.55078125 C-184.60295699 329.86409196 -186.77871048 326.12695353 -188.9375 322.375 C-189.30182129 321.7547998 -189.66614258 321.13459961 -190.04150391 320.49560547 C-200.50913504 302.58126912 -207.44043482 282.57191958 -211.9375 262.375 C-212.25291748 260.96516846 -212.25291748 260.96516846 -212.57470703 259.52685547 C-224.15331845 204.97078534 -212.49598843 146.07159338 -182.55200195 99.31982422 C-150.58940601 50.88085322 -102.91639595 17.62085707 -46.4375 4.5 C-45.61515869 4.30881592 -44.79281738 4.11763184 -43.94555664 3.9206543 C-29.34425378 0.74996231 -14.88676257 -0.03411984 0 0 Z " fill="#3FBEFD" transform="translate(215.9375,-0.37499999999999994)"/>
<path d="M0 0 C0.66365067 -0.00817749 1.32730133 -0.01635498 2.01106262 -0.02478027 C4.21146748 -0.04962926 6.41180775 -0.06615067 8.61230469 -0.08056641 C9.36422844 -0.08589008 10.11615219 -0.09121376 10.89086151 -0.09669876 C14.87238038 -0.12343082 18.85386791 -0.1428037 22.83544922 -0.15722656 C26.94252496 -0.17385645 31.04879543 -0.21861886 35.15556717 -0.26959801 C38.31779876 -0.30330491 41.47984022 -0.31480776 44.6422348 -0.32045364 C46.15568939 -0.3271589 47.66913178 -0.34236234 49.18241119 -0.36634445 C51.30586171 -0.39807072 53.42715464 -0.39802323 55.55078125 -0.390625 C56.75720276 -0.39871185 57.96362427 -0.40679871 59.206604 -0.41513062 C63.69344357 0.40468729 65.55533597 1.74481979 68.53417969 5.19287109 C69.38695681 8.19367758 69.36554289 11.0659369 69.32641602 14.1706543 C69.33853622 15.06561615 69.35065643 15.960578 69.36314392 16.88265991 C69.39461165 19.83700532 69.38204008 22.78920859 69.36621094 25.74365234 C69.37279485 27.80242989 69.38101278 29.86120281 69.39079285 31.91996765 C69.40414877 36.23507721 69.39529858 40.54944362 69.37133789 44.86450195 C69.34280071 50.38304492 69.37276177 55.89944698 69.41997242 61.41779804 C69.44922985 65.67055414 69.4454137 69.92280286 69.43195152 74.17561913 C69.42980345 76.20930841 69.43825696 78.24303847 69.45768166 80.27663612 C69.5995845 98.16304683 69.5995845 98.16304683 65.36108398 103.11547852 C64.11912268 104.18179776 62.84412374 105.21126466 61.53417969 106.19287109 C60.49571066 107.23408212 59.47155094 108.28980681 58.46386719 109.36083984 C57.44811337 110.36984829 56.42982582 111.37631167 55.40917969 112.38037109 C54.85858887 112.92717529 54.30799805 113.47397949 53.74072266 114.03735352 C51.42638509 116.33561473 49.10601319 118.62774625 46.78613281 120.92041016 C45.07500415 122.61325342 43.36626896 124.30845489 41.65917969 126.00537109 C40.84320313 126.81542603 40.84320313 126.81542603 40.01074219 127.6418457 C36.44519271 131.20794406 33.08009342 134.88236607 29.90136719 138.80224609 C28.53417969 140.19287109 28.53417969 140.19287109 25.53417969 141.19287109 C25.53417969 128.98287109 25.53417969 116.77287109 25.53417969 104.19287109 C15.22772331 104.35082178 15.22772331 104.35082178 4.92211914 104.55322266 C2.99178833 104.56820801 2.99178833 104.56820801 1.02246094 104.58349609 C-0.29197998 104.60444336 -1.6064209 104.62539063 -2.96069336 104.64697266 C-7.01332817 104.12193952 -8.61244066 103.05456575 -11.46582031 100.19287109 C-13.11436828 96.89577515 -12.63128921 93.22512145 -12.64282227 89.59985352 C-12.65267906 88.26546989 -12.65267906 88.26546989 -12.66273499 86.90412903 C-12.68248969 83.9521985 -12.69413517 81.00031889 -12.70410156 78.04833984 C-12.70817709 77.04141901 -12.71225262 76.03449818 -12.71645164 74.99706459 C-12.73732126 69.66804839 -12.75161934 64.33905801 -12.76098633 59.01000977 C-12.772055 53.50176946 -12.80645778 47.99393266 -12.84615803 42.48583508 C-12.87228519 38.25392396 -12.88067468 34.02210957 -12.88426781 29.79012489 C-12.88914355 27.75952745 -12.90078551 25.7289346 -12.9193058 23.69841576 C-12.94361504 20.85664134 -12.94274727 18.01591851 -12.93579102 15.17407227 C-12.94860107 14.33492279 -12.96141113 13.49577332 -12.97460938 12.63119507 C-12.9387851 8.61692809 -12.76634973 6.66611613 -10.56144714 3.19404602 C-7.05225622 -0.15698231 -4.77374214 0.05102252 0 0 Z " fill="#FDFEFE" transform="translate(95.4658203125,218.80712890625)"/>
<path d="M0 0 C0.68520218 -0.0087616 1.37040436 -0.01752319 2.07637024 -0.02655029 C4.33086345 -0.04847395 6.58337913 -0.03401956 8.83789062 -0.01708984 C10.41060765 -0.02046008 11.98332214 -0.02531442 13.55603027 -0.03158569 C16.84799053 -0.03894738 20.13927125 -0.02827521 23.43115234 -0.00488281 C27.64491616 0.02360575 31.85708772 0.00719783 36.07079315 -0.02274513 C39.31715837 -0.04083786 42.56314783 -0.03505129 45.80952454 -0.02210617 C47.36282033 -0.01877756 48.91615056 -0.02284014 50.46940613 -0.03450394 C52.64327967 -0.04724678 54.81459751 -0.02779463 56.98828125 0 C58.22340454 0.00397797 59.45852783 0.00795593 60.7310791 0.01205444 C65.05606944 0.85360006 66.47512048 2.04335585 68.99414062 5.64697266 C69.68682729 8.57514608 69.66822239 11.39849002 69.62524414 14.39697266 C69.63239944 15.26749268 69.63955475 16.1380127 69.64692688 17.03491211 C69.66380528 19.90613638 69.64441658 22.77579736 69.62304688 25.64697266 C69.62387565 27.64567189 69.62633537 29.64437105 69.63035583 31.64306641 C69.63321325 35.82947332 69.61851793 40.01534506 69.59106445 44.20166016 C69.55698198 49.5653265 69.56300053 54.9280359 69.58172703 60.29174805 C69.59230035 64.4182125 69.58335613 68.54445465 69.56834221 72.67089844 C69.56316239 74.64843078 69.56363977 76.62598636 69.56988716 78.60351562 C69.57534332 81.36850833 69.55495159 84.13213558 69.52758789 86.89697266 C69.53411377 87.71270752 69.54063965 88.52844238 69.54736328 89.36889648 C69.48092561 93.32097846 69.26961747 95.21616577 67.08580017 98.63134766 C63.5790313 102.01064092 61.30112356 101.78489442 56.51245117 101.82397461 C55.84719421 101.83054581 55.18193726 101.837117 54.496521 101.84388733 C52.29129934 101.86362426 50.08614581 101.87528403 47.88085938 101.88525391 C46.75110152 101.8913672 46.75110152 101.8913672 45.59852028 101.89760399 C41.61166279 101.91846696 37.62483973 101.93276735 33.63793945 101.94213867 C29.52192282 101.9532005 25.4064472 101.98759648 21.29062176 102.02731037 C18.12414044 102.05346952 14.95778813 102.06182987 11.79120827 102.06542015 C10.27416138 102.0702884 8.75712035 102.08190932 7.24017906 102.10045815 C5.1143561 102.12483525 2.98993393 102.1238882 0.86401367 102.11694336 C-0.94894951 102.12574272 -0.94894951 102.12574272 -2.79853821 102.13471985 C-6.62940504 101.55214815 -8.26935979 100.33535736 -11.00585938 97.64697266 C-12.63195418 94.39478304 -12.18030414 90.81264897 -12.19873047 87.23754883 C-12.20690796 86.36746689 -12.21508545 85.49738495 -12.22351074 84.60093689 C-12.24837724 81.71394545 -12.26488354 78.82700319 -12.27929688 75.93994141 C-12.28462055 74.9550857 -12.28994423 73.97022999 -12.29542923 72.95553017 C-12.32216567 67.74322919 -12.3415394 62.53095222 -12.35595703 57.31860352 C-12.37261042 51.93133285 -12.41739269 46.54467327 -12.46832848 41.15763378 C-12.50196215 37.01836941 -12.51353019 32.8792508 -12.51918411 28.73986244 C-12.52590681 26.75390258 -12.54115524 24.76795266 -12.56507492 22.78212547 C-12.59664761 20.00243501 -12.59677528 17.22440231 -12.58935547 14.44458008 C-12.6057608 13.62413208 -12.62216614 12.80368408 -12.6390686 11.95837402 C-12.59444005 7.87423994 -12.30671415 6.07840113 -9.90725708 2.63755798 C-6.33061896 0.18370502 -4.31715139 0.01390427 0 0 Z " fill="#FDFEFE" transform="translate(95.005859375,105.35302734375)"/>
<path d="M0 0 C19.68013607 -0.09266234 39.36021037 -0.16401244 59.04051971 -0.20724869 C68.17878148 -0.22785914 77.31690506 -0.25595068 86.45507812 -0.30175781 C94.42148066 -0.34167209 102.3877831 -0.36744384 110.35428286 -0.37635398 C114.57110773 -0.38156098 118.78764631 -0.39376749 123.00437927 -0.42292023 C126.97706539 -0.45016203 130.94934849 -0.45842743 134.92211914 -0.45243073 C136.37653293 -0.45352706 137.83096083 -0.46142891 139.28529358 -0.4768219 C148.57217024 -0.57025729 154.59555354 0.00498652 162.171875 5.60546875 C162.69265625 6.12753906 163.2134375 6.64960937 163.75 7.1875 C164.54664063 7.95126953 164.54664063 7.95126953 165.359375 8.73046875 C171.78419065 17.61813041 171.57312393 26.59367387 171.51757812 37.12695312 C171.52300496 38.85750414 171.53013077 40.58805054 171.53881836 42.31858826 C171.5569879 46.99837859 171.5500106 51.67781451 171.53730202 56.3576107 C171.52714125 61.26612647 171.53657622 66.17461286 171.54284668 71.08312988 C171.55011414 79.32451803 171.54055906 87.56576258 171.52148438 95.80712891 C171.49971739 105.3213103 171.50676939 114.83514876 171.52879 124.34932184 C171.5469697 132.53304549 171.54948976 140.71666618 171.53903532 148.9004035 C171.53281452 153.78160564 171.53192577 158.66264684 171.54518127 163.5438385 C171.55677662 168.13392673 171.54864703 172.72357487 171.52560425 177.3136158 C171.52033678 178.99334547 171.52179716 180.67311249 171.53065491 182.35282707 C171.57917187 192.49165251 170.79355135 200.03870502 165.25 208.75 C160.40635832 213.59364168 155.06427992 216.82455153 148.14958572 217.12304783 C147.03974697 217.12212604 145.92990822 217.12120424 144.78643799 217.12025452 C143.51040207 217.12162918 142.23436615 217.12300385 140.91966248 217.12442017 C139.50796485 217.12088124 138.09626747 217.11724644 136.68457031 217.11352539 C135.19631451 217.11324328 133.70805857 217.11340171 132.21980286 217.1139679 C128.18090015 217.11425495 124.14202711 217.10837305 120.10313129 217.10139394 C115.88172366 217.09514512 111.66031535 217.09455539 107.43890381 217.09336853 C99.44564664 217.09025973 91.45240313 217.08205241 83.45915198 217.07201904 C74.35887149 217.06084392 65.25859034 217.05534392 56.15830469 217.05032361 C37.43886183 217.03986943 18.71943251 217.0220774 0 217 C0 212.05 0 207.1 0 202 C1.84305222 201.99413376 3.68610443 201.98826752 5.58500671 201.98222351 C22.93387276 201.92506969 40.28261381 201.85252445 57.63135052 201.76428509 C66.55101528 201.71931373 75.47064 201.67990216 84.39038086 201.65356445 C92.16455628 201.63059521 99.93860512 201.59720926 107.71268016 201.55129844 C111.82925696 201.52735166 115.94570826 201.50863245 120.06235313 201.50238609 C123.93739807 201.49634177 127.81212186 201.47636583 131.68704796 201.44572449 C133.10881318 201.43693375 134.53062035 201.43322383 135.95241165 201.43499184 C137.89500303 201.43664469 139.83758037 201.41817791 141.78007507 201.39872742 C143.41026597 201.39181397 143.41026597 201.39181397 145.07339001 201.38476086 C148.46149632 200.93932717 150.30196323 200.08130498 153 198 C155.51387104 194.59866842 155.25392578 191.18620915 155.26069641 187.06080627 C155.26452196 186.36262895 155.26834751 185.66445163 155.27228898 184.94511741 C155.28260654 182.60599449 155.27862926 180.26711761 155.2746582 177.92797852 C155.27900536 176.25079115 155.28418853 174.57360576 155.29014587 172.89642334 C155.30354652 168.34066231 155.30411337 163.78498418 155.30158257 159.22920728 C155.30051361 155.42691883 155.3053943 151.62464721 155.310188 147.82236236 C155.32128681 138.85283492 155.32171844 129.88334935 155.31567383 120.91381836 C155.30963235 111.65817644 155.3219486 102.40268646 155.3432439 93.14707047 C155.36085189 85.20216927 155.36686253 77.25731647 155.36360615 69.31239647 C155.36179191 64.56651964 155.36444352 59.82075122 155.37832069 55.07489204 C155.39088143 50.61218499 155.38897162 46.14971506 155.37590981 41.68701172 C155.37354066 40.04913694 155.3762908 38.41124557 155.38453293 36.77338982 C155.39497381 34.53737618 155.38692187 32.30216213 155.3742218 30.06617737 C155.37438954 28.81496881 155.37455729 27.56376024 155.37473011 26.27463627 C154.9598425 22.64907758 154.30702262 20.8154036 152 18 C148.29590466 15.91530146 145.01817219 15.74304785 140.81803894 15.7215271 C139.57428497 15.71036362 138.33053101 15.69920013 137.04908752 15.68769836 C135.67880279 15.68533365 134.30851773 15.68315796 132.93823242 15.68115234 C131.4892318 15.67185 130.04023652 15.66168087 128.59124756 15.65071106 C124.66399427 15.62343142 120.7367768 15.60826771 116.80945373 15.59528303 C112.7027868 15.57964358 108.59619295 15.55285595 104.48957825 15.5272522 C96.71596744 15.48047884 88.94234287 15.44372775 81.16866332 15.41057932 C72.31740097 15.37234775 63.46621203 15.32294029 54.61501157 15.27259517 C36.4100606 15.16929677 18.2050654 15.08042597 0 15 C0 10.05 0 5.1 0 0 Z " fill="#FDFEFE" transform="translate(178,106)"/>
<path d="M0 0 C1.62711914 -0.0299707 1.62711914 -0.0299707 3.28710938 -0.06054688 C11.23516289 -0.05566178 11.23516289 -0.05566178 15.25390625 2.33984375 C18.24700975 5.81132664 18.19963112 7.93440635 18.23950195 12.46020508 C18.25875481 14.35776299 18.25875481 14.35776299 18.27839661 16.2936554 C18.28656422 17.68144337 18.29400791 19.06923577 18.30078125 20.45703125 C18.30485678 21.15504034 18.3089323 21.85304943 18.31313133 22.57221031 C18.33399222 26.2672941 18.34829334 29.96234076 18.35766602 33.6574707 C18.36872572 37.47083605 18.40311953 41.28361709 18.44283772 45.09677601 C18.46900691 48.03164237 18.4773581 50.96636963 18.48094749 53.90134239 C18.4858134 55.30674876 18.49742771 56.71214891 18.51598549 58.11744118 C18.54037651 60.0870212 18.53699215 62.05688547 18.5324707 64.02661133 C18.53833694 65.14642899 18.54420319 66.26624664 18.55024719 67.41999817 C17.95153426 71.12400178 16.6433021 72.76569328 14.0625 75.4375 C9.59685459 78.10235169 4.68049266 77.80471633 -0.375 77.8125 C-1.20837891 77.83699219 -2.04175781 77.86148438 -2.90039062 77.88671875 C-8.39513117 77.91278076 -11.66501866 77.21378064 -15.9375 73.4375 C-18.65832212 69.66878033 -19.31507735 67.06161011 -19.32568359 62.44140625 C-19.33514008 61.25667725 -19.34459656 60.07194824 -19.3543396 58.85131836 C-19.34826691 57.5803833 -19.34219421 56.30944824 -19.3359375 55 C-19.33880768 53.68717041 -19.34167786 52.37434082 -19.34463501 51.02172852 C-19.34904861 48.24777596 -19.34265885 45.47411398 -19.32861328 42.70019531 C-19.31152145 39.15262215 -19.32136788 35.60572997 -19.33933067 32.05818176 C-19.35280585 28.6637339 -19.34335867 25.26946718 -19.3359375 21.875 C-19.34201019 20.60406494 -19.34808289 19.33312988 -19.3543396 18.02368164 C-19.34488312 16.83895264 -19.33542664 15.65422363 -19.32568359 14.43359375 C-19.32329681 13.39388428 -19.32091003 12.3541748 -19.31845093 11.28295898 C-18.76606684 7.15700432 -17.05316343 4.51656979 -14.09155273 1.65209961 C-9.81347114 -0.76017013 -4.7900972 -0.03119661 0 0 Z " fill="#FBFDFE" transform="translate(196.9375,130.5625)"/>
<path d="M0 0 C27 0 27 0 33 3 C35.90487393 6.63002665 36.37765742 9.41076824 36.38818359 13.99609375 C36.39764008 15.18082275 36.40709656 16.36555176 36.4168396 17.58618164 C36.41076691 18.8571167 36.40469421 20.12805176 36.3984375 21.4375 C36.40130768 22.75032959 36.40417786 24.06315918 36.40713501 25.41577148 C36.41154861 28.18972404 36.40515885 30.96338602 36.39111328 33.73730469 C36.37402145 37.28487785 36.38386788 40.83177003 36.40183067 44.37931824 C36.41530585 47.7737661 36.40585867 51.16803282 36.3984375 54.5625 C36.40754654 56.46890259 36.40754654 56.46890259 36.4168396 58.41381836 C36.40738312 59.59854736 36.39792664 60.78327637 36.38818359 62.00390625 C36.38579681 63.04361572 36.38341003 64.0833252 36.38095093 65.15454102 C35.92921899 68.52868872 35.07920077 70.31095191 33 73 C28 76 28 76 0 76 C0 50.92 0 25.84 0 0 Z " fill="#FAFCFE" transform="translate(235,131)"/>
<path d="M0 0 C1.3931543 -0.0299707 1.3931543 -0.0299707 2.81445312 -0.06054688 C8.56013458 -0.05645742 12.07000177 0.50033435 16.5625 4.4375 C19.00470112 8.10080169 18.80522492 9.83861041 18.78955078 14.20385742 C18.78984283 14.88704544 18.79013489 15.57023346 18.79043579 16.27412415 C18.78904332 18.53053523 18.77348629 20.78661541 18.7578125 23.04296875 C18.75408207 24.60809651 18.75123524 26.17322661 18.74923706 27.73835754 C18.74160294 31.85658218 18.7219564 35.97466561 18.6998291 40.09283447 C18.67936589 44.29559418 18.67023433 48.49837671 18.66015625 52.70117188 C18.63871024 60.94668658 18.60352994 69.19205946 18.5625 77.4375 C14.2725 77.4375 9.9825 77.4375 5.5625 77.4375 C5.5625 70.5075 5.5625 63.5775 5.5625 56.4375 C2.2625 56.4375 -1.0375 56.4375 -4.4375 56.4375 C-4.4375 63.3675 -4.4375 70.2975 -4.4375 77.4375 C-9.0575 77.4375 -13.6775 77.4375 -18.4375 77.4375 C-18.50536404 68.6750347 -18.56036684 59.91274489 -18.59293652 51.15007591 C-18.60857087 47.08090805 -18.62976809 43.01192983 -18.66381836 38.94287109 C-18.69649183 35.01360849 -18.71436979 31.08452793 -18.72213173 27.15513992 C-18.72766095 25.65846518 -18.73845824 24.16180003 -18.75469017 22.66520309 C-18.77657143 20.56353223 -18.77946258 18.46260688 -18.77807617 16.36083984 C-18.78473801 15.16615082 -18.79139984 13.97146179 -18.79826355 12.74057007 C-18.29448069 8.12804732 -16.85589423 4.72521683 -13.40234375 1.58984375 C-8.9510501 -0.14023744 -4.73405858 -0.03598801 0 0 Z " fill="#F7FBFE" transform="translate(196.4375,218.5625)"/>
<path d="M0 0 C4.95 0 9.9 0 15 0 C17.22302233 5.70423618 19.06889645 11.4102206 20.6875 17.3125 C20.91244141 18.10978516 21.13738281 18.90707031 21.36914062 19.72851562 C21.58119141 20.49486328 21.79324219 21.26121094 22.01171875 22.05078125 C22.20209717 22.73825439 22.39247559 23.42572754 22.58862305 24.1340332 C23 26 23 26 23 29 C23.66 29 24.32 29 25 29 C25.17015625 28.15179688 25.3403125 27.30359375 25.515625 26.4296875 C30.44875346 2.55124654 30.44875346 2.55124654 33 0 C37.95 0 42.9 0 48 0 C48 24.75 48 49.5 48 75 C44.04 75 40.08 75 36 75 C35.67 58.5 35.34 42 35 25 C32.69 32.26 30.38 39.52 28 47 C25.36 47 22.72 47 20 47 C17.69 39.74 15.38 32.48 13 25 C12.67 41.5 12.34 58 12 75 C8.04 75 4.08 75 0 75 C0 50.25 0 25.5 0 0 Z " fill="#FDFEFE" transform="translate(226,220)"/>
<path d="M0 0 C30 0 30 0 35 4 C37.62402631 7.57033963 37.30613196 11.57304935 37.30078125 15.8359375 C37.30506638 16.59290924 37.3093515 17.34988098 37.31376648 18.12979126 C37.31949896 19.72844444 37.32001801 21.3271237 37.31567383 22.92578125 C37.31251965 25.35983291 37.33596473 27.79266149 37.36132812 30.2265625 C37.36360197 31.78385264 37.36430422 33.34114603 37.36328125 34.8984375 C37.372491 35.62050385 37.38170074 36.34257019 37.39118958 37.08651733 C37.34855599 41.79123885 36.51075009 45.01803453 34 49 C29.50464434 52.10765892 25.42839398 52.38633328 20.125 52.1875 C17.77375 52.125625 15.4225 52.06375 13 52 C13 59.92 13 67.84 13 76 C8.71 76 4.42 76 0 76 C0 50.92 0 25.84 0 0 Z " fill="#FAFCFE" transform="translate(285,220)"/>
<path d="M0 0 C0.94166016 -0.01611328 1.88332031 -0.03222656 2.85351562 -0.04882812 C11.73879323 -0.05509861 11.73879323 -0.05509861 15.5625 3.3125 C17.57397787 6.51698013 17.79946096 8.98601334 17.7578125 12.734375 C17.75136719 13.75917969 17.74492187 14.78398437 17.73828125 15.83984375 C17.72152344 16.90332031 17.70476562 17.96679688 17.6875 19.0625 C17.67847656 20.14144531 17.66945312 21.22039062 17.66015625 22.33203125 C17.6366142 24.99228249 17.60074397 27.65241949 17.5625 30.3125 C13.6025 30.3125 9.6425 30.3125 5.5625 30.3125 C5.5625 23.7125 5.5625 17.1125 5.5625 10.3125 C1.9325 10.3125 -1.6975 10.3125 -5.4375 10.3125 C-5.4375 28.4625 -5.4375 46.6125 -5.4375 65.3125 C-1.8075 65.3125 1.8225 65.3125 5.5625 65.3125 C5.5625 58.7125 5.5625 52.1125 5.5625 45.3125 C9.5225 45.3125 13.4825 45.3125 17.5625 45.3125 C17.64364826 49.02127584 17.70307594 52.72826511 17.75 56.4375 C17.77513672 57.48421875 17.80027344 58.5309375 17.82617188 59.609375 C17.92203816 69.70729039 17.92203816 69.70729039 14.5625 74.3125 C9.91151841 77.23027906 4.94705403 76.71891727 -0.375 76.75 C-1.36435547 76.78287109 -2.35371094 76.81574219 -3.37304688 76.84960938 C-10.64730442 76.90342029 -10.64730442 76.90342029 -14.56640625 73.97265625 C-17.34170425 70.02698206 -17.56834775 67.16170223 -17.59863281 62.45166016 C-17.60824036 61.24675934 -17.6178479 60.04185852 -17.62774658 58.80044556 C-17.63199646 57.49731415 -17.63624634 56.19418274 -17.640625 54.8515625 C-17.64637931 53.50019326 -17.65213701 52.14882404 -17.65789795 50.79745483 C-17.66839764 47.9645754 -17.67424708 45.13172427 -17.67773438 42.29882812 C-17.68321773 38.67503998 -17.70724622 35.05162782 -17.73570633 31.42795753 C-17.75436189 28.63635171 -17.75953984 25.84483595 -17.76107025 23.05317307 C-17.76555605 21.06955362 -17.78418755 19.08598244 -17.80303955 17.10244751 C-17.80003845 15.89124237 -17.79703735 14.68003723 -17.79394531 13.43212891 C-17.79759094 12.36862213 -17.80123657 11.30511536 -17.80499268 10.2093811 C-17.38285739 6.88176178 -16.3958264 5.0105383 -14.4375 2.3125 C-10.07583671 -0.677855 -5.08831334 -0.01734258 0 0 Z " fill="#39B9F8" transform="translate(123.4375,232.6875)"/>
<path d="M0 0 C0.90298828 -0.020625 1.80597656 -0.04125 2.73632812 -0.0625 C7.68618044 -0.09159538 11.24193115 -0.08682394 15.1875 3.25 C17.9917793 6.35622627 18.55300329 8.2944781 18.48046875 12.453125 C18.4659668 13.92265625 18.4659668 13.92265625 18.45117188 15.421875 C18.42603516 16.43765625 18.40089844 17.4534375 18.375 18.5 C18.35469727 20.046875 18.35469727 20.046875 18.33398438 21.625 C18.29868034 24.16689049 18.24487473 26.7085119 18.1875 29.25 C14.2275 29.25 10.2675 29.25 6.1875 29.25 C6.1875 22.98 6.1875 16.71 6.1875 10.25 C2.5575 10.25 -1.0725 10.25 -4.8125 10.25 C-4.8125 28.07 -4.8125 45.89 -4.8125 64.25 C-1.1825 64.25 2.4475 64.25 6.1875 64.25 C6.1875 57.65 6.1875 51.05 6.1875 44.25 C10.1475 44.25 14.1075 44.25 18.1875 44.25 C18.26851311 47.97960366 18.32801069 51.70744359 18.375 55.4375 C18.40013672 56.49259766 18.42527344 57.54769531 18.45117188 58.63476562 C18.46083984 59.65634766 18.47050781 60.67792969 18.48046875 61.73046875 C18.4961792 62.66785889 18.51188965 63.60524902 18.52807617 64.57104492 C18.11657749 67.80787288 17.1058649 69.6296095 15.1875 72.25 C10.64008612 75.28160925 6.16412217 74.65791487 0.8125 74.6875 C-0.2290625 74.72037109 -1.270625 74.75324219 -2.34375 74.78710938 C-10.01324925 74.84105087 -10.01324925 74.84105087 -13.9765625 71.91015625 C-16.65450427 68.02998956 -16.94749251 65.19432122 -17.00537109 60.58862305 C-17.02946548 58.84617561 -17.02946548 58.84617561 -17.05404663 57.06852722 C-17.09851009 51.76093072 -17.1399902 46.45348132 -17.16259766 41.14575195 C-17.17593242 38.34528913 -17.20377878 35.54555578 -17.24462891 32.74536133 C-17.30350336 28.70902257 -17.32126545 24.67346456 -17.3359375 20.63671875 C-17.35860687 19.38654465 -17.38127625 18.13637054 -17.40463257 16.84831238 C-17.38106811 7.16560926 -17.38106811 7.16560926 -14.40478516 3.47583008 C-9.74456088 -0.52560755 -5.9258615 0.03340866 0 0 Z " fill="#37B9F8" transform="translate(122.8125,118.75)"/>
<path d="M0 0 C9.57 0 19.14 0 29 0 C29.66 3.96 30.32 7.92 31 12 C25.06 12 19.12 12 13 12 C13 18.6 13 25.2 13 32 C17.62 32 22.24 32 27 32 C26.67 35.63 26.34 39.26 26 43 C21.71 43 17.42 43 13 43 C13 49.93 13 56.86 13 64 C18.94 64 24.88 64 31 64 C31 71 31 71 30 76 C20.1 76 10.2 76 0 76 C0 50.92 0 25.84 0 0 Z " fill="#FBFDFE" transform="translate(290,131)"/>
<path d="M0 0 C3.96 0 7.92 0 12 0 C12 18.48 12 36.96 12 56 C8.04 56 4.08 56 0 56 C0 37.52 0 19.04 0 0 Z " fill="#47BBF7" transform="translate(191,141)"/>
<path d="M0 0 C3.3 0 6.6 0 10 0 C10 17.82 10 35.64 10 54 C6.7 54 3.4 54 0 54 C0 36.18 0 18.36 0 0 Z " fill="#34B7F6" transform="translate(248,142)"/>
<path d="M0 0 C3.63 0 7.26 0 11 0 C11 11.22 11 22.44 11 34 C7.37 34 3.74 34 0 34 C0 22.78 0 11.56 0 0 Z " fill="#41B9F6" transform="translate(191,230)"/>
<path d="M0 0 C3.63 0 7.26 0 11 0 C11 9.57 11 19.14 11 29 C7.37 29 3.74 29 0 29 C0 19.43 0 9.86 0 0 Z " fill="#38B8F6" transform="translate(298,231)"/>
<path d="M0 0 C0.33 0 0.66 0 1 0 C0.67 17.49 0.34 34.98 0 53 C-0.33 53 -0.66 53 -1 53 C-1.33 40.46 -1.66 27.92 -2 15 C-2.66 15.66 -3.32 16.32 -4 17 C-3.45018084 10.95198929 -2.09570426 5.69398894 0 0 Z " fill="#31BBFA" transform="translate(261,242)"/>
<path d="M0 0 C2.00293347 3.00440021 2.49271626 4.70993945 3.125 8.1875 C3.37636719 9.53908203 3.37636719 9.53908203 3.6328125 10.91796875 C3.75398437 11.60503906 3.87515625 12.29210937 4 13 C3.67 12.34 3.34 11.68 3 11 C2.01 11.33 1.02 11.66 0 12 C0 8.04 0 4.08 0 0 Z " fill="#29B6F5" transform="translate(238,242)"/>
</svg>
